# xmcd
#
# Track frame offsets: 
#        150
#        20850
#        41040
#        61230
#        94575
#        113600
#        147017
#        165420
#        204820
#        222950
#        243625
#        263847
#
# Disc length: 3755 seconds
#
# Revision: 0
# Processed by: cddbd v1.5.2PL0 Copyright (c) Steve Scherf et al.
# Submitted via: ExactAudioCopy v0.99pb5
#
DISCID=a10ea90c
DTITLE=Freetime Old Dixie Jassband - Song of the night
DYEAR=1995
DGENRE=Blues
TTITLE0=Shake It and Break It
TTITLE1=Candy Lips
TTITLE2=Perdido Street Blues
TTITLE3=Blue Bell Goodbye
TTITLE4=A Kiss to Build a Dream on
TTITLE5=Froggie Moore
TTITLE6=Weary Blues
TTITLE7=Winin' Boy Blues
TTITLE8=Give Me Your Telephone Number
TTITLE9=Song of the Night
TTITLE10=The Ragtime Dance
TTITLE11=Ding Dong Blues
EXTD=
EXTT0=
EXTT1=
EXTT2=
EXTT3=
EXTT4=
EXTT5=
EXTT6=
EXTT7=
EXTT8=
EXTT9=
EXTT10=
EXTT11=
PLAYORDER=
